<svg version="1.1" xmlns="http://www.w3.org/2000/svg" xmlns:xlink="http://www.w3.org/1999/xlink" width="780" height="635"><defs/><g><g transform="translate(-54,2) scale(1,1)"><rect fill="#C0C0C0" stroke="none" x="71" y="119" width="304" height="15" opacity="0.2"/></g><g transform="translate(-54,2) scale(1,1)"><rect fill="#C0C0C0" stroke="none" x="71" y="133" width="760" height="370" opacity="0.2"/></g><g transform="translate(-54,2) scale(1,1)"><rect fill="#ffffff" stroke="none" x="64" y="127" width="760" height="369"/></g><g transform="translate(-54,2) scale(1,1)"><path fill="none" stroke="#000000" d="M 64 127 L 824 127 L 824 496 L 64 496 L 64 127 Z Z" stroke-miterlimit="10"/></g><g transform="translate(-54,2) scale(1,1)"><rect fill="#ffffff" stroke="none" x="64" y="112" width="304" height="15"/></g><g transform="translate(-54,2) scale(1,1)"><path fill="none" stroke="#000000" d="M 64 112 L 368 112 L 368 127 L 64 127 L 64 112 Z Z" stroke-miterlimit="10"/></g><g transform="translate(-54,2) scale(1,1)"><rect fill="#ffffff" stroke="none" x="64" y="126" width="760" height="370"/></g><g transform="translate(-54,2) scale(1,1)"><path fill="none" stroke="#000000" d="M 64 126 L 824 126 L 824 496 L 64 496 L 64 126 Z Z" stroke-miterlimit="10"/></g><g transform="translate(-54,2) scale(1,1)"><g><path fill="none" stroke="none"/><text fill="#000000" stroke="none" font-family="Arial" font-size="13px" font-style="normal" font-weight="bold" text-decoration="none" x="425.575927734375" y="146.5">Profile</text></g></g><g transform="translate(-54,2) scale(1,1)"><path fill="#ffffff" stroke="none" d="M 438.78483860085225 553.6800000000001 C 438.78483860085225 548.8861679360001 442.67068092579774 545 447.464111328125 545 C 452.25754173045226 545 456.14338405539775 548.8861679360001 456.14338405539775 553.6800000000001 C 456.14338405539775 558.473832064 452.25754173045226 562.36 447.464111328125 562.36 C 442.67068092579774 562.36 438.78483860085225 558.473832064 438.78483860085225 553.6800000000001 Z"/></g><g transform="translate(-54,2) scale(1,1)"><path fill="none" stroke="#000000" d="M 438.78483860085225 553.6800000000001 C 438.78483860085225 548.8861679360001 442.67068092579774 545 447.464111328125 545 C 452.25754173045226 545 456.14338405539775 548.8861679360001 456.14338405539775 553.6800000000001 C 456.14338405539775 558.473832064 452.25754173045226 562.36 447.464111328125 562.36 C 442.67068092579774 562.36 438.78483860085225 558.473832064 438.78483860085225 553.6800000000001 Z" stroke-miterlimit="10"/></g><g transform="translate(-54,2) scale(1,1)"><path fill="none" stroke="#000000" d="M 447.464111328125 562.36 L 447.464111328125 579.64" stroke-miterlimit="10"/></g><g transform="translate(-54,2) scale(1,1)"><path fill="none" stroke="#000000" d="M 438.27429314630683 568.84 L 456.65392950994317 568.84" stroke-miterlimit="10"/></g><g transform="translate(-54,2) scale(1,1)"><path fill="none" stroke="#000000" d="M 447.464111328125 579.64 L 434.70047496448865 597" stroke-miterlimit="10"/></g><g transform="translate(-54,2) scale(1,1)"><path fill="none" stroke="#000000" d="M 447.464111328125 579.64 L 460.22774769176135 597" stroke-miterlimit="10"/></g><g transform="translate(-54,2) scale(1,1)"><g><path fill="none" stroke="none"/><text fill="#000000" stroke="none" font-family="Arial" font-size="13px" font-style="normal" font-weight="bold" text-decoration="none" x="408.438720703125" y="617.5">Plugin Author</text></g></g><g transform="translate(-54,2) scale(1,1)"><path fill="#ffffff" stroke="none" d="M 456.35661594460225 17.68 C 456.35661594460225 12.886167936 460.24245826954774 9 465.035888671875 9 C 469.82931907420226 9 473.71516139914775 12.886167936 473.71516139914775 17.68 C 473.71516139914775 22.473832064 469.82931907420226 26.36 465.035888671875 26.36 C 460.24245826954774 26.36 456.35661594460225 22.473832064 456.35661594460225 17.68 Z"/></g><g transform="translate(-54,2) scale(1,1)"><path fill="none" stroke="#000000" d="M 456.35661594460225 17.68 C 456.35661594460225 12.886167936 460.24245826954774 9 465.035888671875 9 C 469.82931907420226 9 473.71516139914775 12.886167936 473.71516139914775 17.68 C 473.71516139914775 22.473832064 469.82931907420226 26.36 465.035888671875 26.36 C 460.24245826954774 26.36 456.35661594460225 22.473832064 456.35661594460225 17.68 Z" stroke-miterlimit="10"/></g><g transform="translate(-54,2) scale(1,1)"><path fill="none" stroke="#000000" d="M 465.035888671875 26.36 L 465.035888671875 43.64" stroke-miterlimit="10"/></g><g transform="translate(-54,2) scale(1,1)"><path fill="none" stroke="#000000" d="M 455.84607049005683 32.84 L 474.22570685369317 32.84" stroke-miterlimit="10"/></g><g transform="translate(-54,2) scale(1,1)"><path fill="none" stroke="#000000" d="M 465.035888671875 43.64 L 452.27225230823865 61" stroke-miterlimit="10"/></g><g transform="translate(-54,2) scale(1,1)"><path fill="none" stroke="#000000" d="M 465.035888671875 43.64 L 477.79952503551135 61" stroke-miterlimit="10"/></g><g transform="translate(-54,2) scale(1,1)"><g><path fill="none" stroke="none"/><text fill="#000000" stroke="none" font-family="Arial" font-size="13px" font-style="normal" font-weight="bold" text-decoration="none" x="437.94091796875" y="81.5">End User</text></g></g><g transform="translate(-54,2) scale(1,1)"><rect fill="#C0C0C0" stroke="none" x="95" y="215" width="262.4" height="15" opacity="0.2"/></g><g transform="translate(-54,2) scale(1,1)"><rect fill="#C0C0C0" stroke="none" x="95" y="229" width="656" height="186" opacity="0.2"/></g><g transform="translate(-54,2) scale(1,1)"><rect fill="#ffffff" stroke="none" x="88" y="223" width="656" height="185"/></g><g transform="translate(-54,2) scale(1,1)"><path fill="none" stroke="#000000" d="M 88 223 L 744 223 L 744 408 L 88 408 L 88 223 Z Z" stroke-miterlimit="10"/></g><g transform="translate(-54,2) scale(1,1)"><rect fill="#ffffff" stroke="none" x="88" y="208" width="262.4" height="15"/></g><g transform="translate(-54,2) scale(1,1)"><path fill="none" stroke="#000000" d="M 88 208 L 350.4 208 L 350.4 223 L 88 223 L 88 208 Z Z" stroke-miterlimit="10"/></g><g transform="translate(-54,2) scale(1,1)"><rect fill="#ffffff" stroke="none" x="88" y="222" width="656" height="186"/></g><g transform="translate(-54,2) scale(1,1)"><path fill="none" stroke="#000000" d="M 88 222 L 744 222 L 744 408 L 88 408 L 88 222 Z Z" stroke-miterlimit="10"/></g><g transform="translate(-54,2) scale(1,1)"><g><path fill="none" stroke="none"/><text fill="#000000" stroke="none" font-family="Arial" font-size="13px" font-style="normal" font-weight="bold" text-decoration="none" x="355.671875" y="242.5">Custom Plugin Class</text></g></g><g transform="translate(-54,2) scale(1,1)"><path fill="#C0C0C0" stroke="none" d="M 183 312 C 183 302.6111584 222.17508 295 270.5 295 C 318.82492 295 358 302.6111584 358 312 C 358 321.3888416 318.82492 329 270.5 329 C 222.17508 329 183 321.3888416 183 312 Z" opacity="0.2"/></g><g transform="translate(-54,2) scale(1,1)"><path fill="#ffffff" stroke="none" d="M 176 305 C 176 295.6111584 215.17508 288 263.5 288 C 311.82492 288 351 295.6111584 351 305 C 351 314.3888416 311.82492 322 263.5 322 C 215.17508 322 176 314.3888416 176 305 Z"/></g><g transform="translate(-54,2) scale(1,1)"><path fill="none" stroke="#000000" d="M 176 305 C 176 295.6111584 215.17508 288 263.5 288 C 311.82492 288 351 295.6111584 351 305 C 351 314.3888416 311.82492 322 263.5 322 C 215.17508 322 176 314.3888416 176 305 Z" stroke-miterlimit="10"/></g><g transform="translate(-54,2) scale(1,1)"><g><path fill="none" stroke="none"/><text fill="#000000" stroke="none" font-family="Arial" font-size="13px" font-style="normal" font-weight="bold" text-decoration="none" x="210.3955078125" y="312">Hotkey GuiControl</text></g></g><g transform="translate(-54,2) scale(1,1)"><path fill="none" stroke="#000000" d="M 421 543 L 275 323" stroke-miterlimit="10"/></g><g transform="translate(-54,2) scale(1,1)"><g><path fill="none" stroke="none"/><text fill="#000000" stroke="none" font-family="Arial" font-size="13px" font-style="normal" font-weight="normal" text-decoration="none" x="343" y="428">+Adds to Plugin</text></g></g><g transform="translate(-54,2) scale(1,1)"><path fill="none" stroke="#000000" d="M 433 88 L 277 287" stroke-miterlimit="10"/></g><g transform="translate(-54,2) scale(1,1)"><g><path fill="none" stroke="none"/><text fill="#000000" stroke="none" font-family="Arial" font-size="13px" font-style="normal" font-weight="normal" text-decoration="none" x="359" y="189">+Picks binding</text></g></g><g transform="translate(-54,2) scale(1,1)"><path fill="#C0C0C0" stroke="none" d="M 423 312 C 423 302.6111584 455.90706720000003 295 496.5 295 C 537.0929328 295 570 302.6111584 570 312 C 570 321.3888416 537.0929328 329 496.5 329 C 455.90706720000003 329 423 321.3888416 423 312 Z" opacity="0.2"/></g><g transform="translate(-54,2) scale(1,1)"><path fill="#ffffff" stroke="none" d="M 416 305 C 416 295.6111584 448.90706720000003 288 489.5 288 C 530.0929328 288 563 295.6111584 563 305 C 563 314.3888416 530.0929328 322 489.5 322 C 448.90706720000003 322 416 314.3888416 416 305 Z"/></g><g transform="translate(-54,2) scale(1,1)"><path fill="none" stroke="#000000" d="M 416 305 C 416 295.6111584 448.90706720000003 288 489.5 288 C 530.0929328 288 563 295.6111584 563 305 C 563 314.3888416 530.0929328 322 489.5 322 C 448.90706720000003 322 416 314.3888416 416 305 Z" stroke-miterlimit="10"/></g><g transform="translate(-54,2) scale(1,1)"><g><path fill="none" stroke="none"/><text fill="#000000" stroke="none" font-family="Arial" font-size="13px" font-style="normal" font-weight="bold" text-decoration="none" x="446.148681640625" y="312">Script Function</text></g></g><g transform="translate(-54,2) scale(1,1)"><path fill="none" stroke="#000000" d="M 453 543 L 486 323" stroke-miterlimit="10"/></g><g transform="translate(-54,2) scale(1,1)"><g><path fill="none" stroke="none"/><text fill="#000000" stroke="none" font-family="Arial" font-size="13px" font-style="normal" font-weight="normal" text-decoration="none" x="415" y="461">+Writes</text></g></g><g transform="translate(-54,2) scale(1,1)"><path fill="none" stroke="#000000" d="M 352 305 L 415 305" stroke-miterlimit="10"/></g><g transform="translate(-54,2) scale(1,1)"><path fill="none" stroke="#000000" d="M 404.83732514237585 309.209517756016 L 415 305 L 404.83732514237585 300.790482243984" stroke-miterlimit="10"/></g><g transform="translate(-54,2) scale(1,1)"><g><path fill="none" stroke="none"/><text fill="#000000" stroke="none" font-family="Arial" font-size="13px" font-style="normal" font-weight="normal" text-decoration="none" x="365" y="297">+Calls</text></g></g><g transform="translate(-54,2) scale(1,1)"><path fill="#C0C0C0" stroke="none" d="M 631 312 C 631 302.6111584 655.4004784 295 685.5 295 C 715.5995216 295 740 302.6111584 740 312 C 740 321.3888416 715.5995216 329 685.5 329 C 655.4004784 329 631 321.3888416 631 312 Z" opacity="0.2"/></g><g transform="translate(-54,2) scale(1,1)"><path fill="#ffffff" stroke="none" d="M 624 305 C 624 295.6111584 648.4004784 288 678.5 288 C 708.5995216 288 733 295.6111584 733 305 C 733 314.3888416 708.5995216 322 678.5 322 C 648.4004784 322 624 314.3888416 624 305 Z"/></g><g transform="translate(-54,2) scale(1,1)"><path fill="none" stroke="#000000" d="M 624 305 C 624 295.6111584 648.4004784 288 678.5 288 C 708.5995216 288 733 295.6111584 733 305 C 733 314.3888416 708.5995216 322 678.5 322 C 648.4004784 322 624 314.3888416 624 305 Z" stroke-miterlimit="10"/></g><g transform="translate(-54,2) scale(1,1)"><g><path fill="none" stroke="none"/><text fill="#000000" stroke="none" font-family="Arial" font-size="13px" font-style="normal" font-weight="bold" text-decoration="none" x="647.431396484375" y="312">GuiControl</text></g></g><g transform="translate(-54,2) scale(1,1)"><path fill="none" stroke="#000000" d="M 499 88 L 663 287" stroke-miterlimit="10"/></g><g transform="translate(-54,2) scale(1,1)"><g><path fill="none" stroke="none"/><text fill="#000000" stroke="none" font-family="Arial" font-size="13px" font-style="normal" font-weight="normal" text-decoration="none" x="494" y="196">+Sets value of</text></g></g><g transform="translate(-54,2) scale(1,1)"><path fill="none" stroke="#000000" d="M 623 305 L 564 305" stroke-miterlimit="10"/></g><g transform="translate(-54,2) scale(1,1)"><path fill="none" stroke="#000000" d="M 574.1626748576241 300.790482243984 L 564 305 L 574.1626748576241 309.209517756016" stroke-miterlimit="10"/></g><g transform="translate(-54,2) scale(1,1)"><g><path fill="none" stroke="none"/><text fill="#000000" stroke="none" font-family="Arial" font-size="13px" font-style="normal" font-weight="normal" text-decoration="none" x="543" y="327">+Is configured by</text></g></g><g transform="translate(-54,2) scale(1,1)"><path fill="none" stroke="#000000" d="M 480 543 L 663 323" stroke-miterlimit="10"/></g><g transform="translate(-54,2) scale(1,1)"><g><path fill="none" stroke="none"/><text fill="#000000" stroke="none" font-family="Arial" font-size="13px" font-style="normal" font-weight="normal" text-decoration="none" x="568" y="452">+Adds to plugin</text></g></g><g transform="translate(-54,2) scale(1,1)"><path fill="#C0C0C0" stroke="none" d="M 639 166.5 C 639 153.5213072 678.8466528 143 728 143 C 777.1533472 143 817 153.5213072 817 166.5 C 817 179.4786928 777.1533472 190 728 190 C 678.8466528 190 639 179.4786928 639 166.5 Z" opacity="0.2"/></g><g transform="translate(-54,2) scale(1,1)"><path fill="#ffffff" stroke="none" d="M 632 159.5 C 632 146.5213072 671.8466528 136 721 136 C 770.1533472 136 810 146.5213072 810 159.5 C 810 172.4786928 770.1533472 183 721 183 C 671.8466528 183 632 172.4786928 632 159.5 Z"/></g><g transform="translate(-54,2) scale(1,1)"><path fill="none" stroke="#000000" d="M 632 159.5 C 632 146.5213072 671.8466528 136 721 136 C 770.1533472 136 810 146.5213072 810 159.5 C 810 172.4786928 770.1533472 183 721 183 C 671.8466528 183 632 172.4786928 632 159.5 Z" stroke-miterlimit="10"/></g><g transform="translate(-54,2) scale(1,1)"><g><path fill="none" stroke="none"/><text fill="#000000" stroke="none" font-family="Arial" font-size="13px" font-style="normal" font-weight="bold" text-decoration="none" x="666.089599609375" y="166.5">Add Profile to UCR</text></g></g><g transform="translate(-54,2) scale(1,1)"><path fill="none" stroke="#000000" d="M 499 62 L 666 135" stroke-miterlimit="10"/></g><g transform="translate(-54,2) scale(1,1)"><g><path fill="none" stroke="none"/><text fill="#000000" stroke="none" font-family="Arial" font-size="13px" font-style="normal" font-weight="normal" text-decoration="none" x="575" y="93">+Uses UI to</text></g></g><g transform="translate(-54,2) scale(1,1)"><path fill="none" stroke="#000000" d="M 431 73 L 225 231" stroke-miterlimit="10"/></g><g transform="translate(-54,2) scale(1,1)"><g><path fill="none" stroke="none"/><text fill="#000000" stroke="none" font-family="Arial" font-size="13px" font-style="normal" font-weight="normal" text-decoration="none" x="255" y="156">+Uses UI to</text></g></g><g transform="translate(-54,2) scale(1,1)"><path fill="none" stroke="#000000" d="M 399 545 L 200 387" stroke-miterlimit="10"/></g><g transform="translate(-54,2) scale(1,1)"><g><path fill="none" stroke="none"/><text fill="#000000" stroke="none" font-family="Arial" font-size="13px" font-style="normal" font-weight="normal" text-decoration="none" x="110" y="469">+Derives from UCR Plugin class</text></g></g><g transform="translate(-54,2) scale(1,1)"><path fill="#C0C0C0" stroke="none" d="M 119 376 C 119 366.6111584 148.3253456 359 184.5 359 C 220.6746544 359 250 366.6111584 250 376 C 250 385.3888416 220.6746544 393 184.5 393 C 148.3253456 393 119 385.3888416 119 376 Z" opacity="0.2"/></g><g transform="translate(-54,2) scale(1,1)"><path fill="#ffffff" stroke="none" d="M 112 369 C 112 359.6111584 141.3253456 352 177.5 352 C 213.6746544 352 243 359.6111584 243 369 C 243 378.3888416 213.6746544 386 177.5 386 C 141.3253456 386 112 378.3888416 112 369 Z"/></g><g transform="translate(-54,2) scale(1,1)"><path fill="none" stroke="#000000" d="M 112 369 C 112 359.6111584 141.3253456 352 177.5 352 C 213.6746544 352 243 359.6111584 243 369 C 243 378.3888416 213.6746544 386 177.5 386 C 141.3253456 386 112 378.3888416 112 369 Z" stroke-miterlimit="10"/></g><g transform="translate(-54,2) scale(1,1)"><g><path fill="none" stroke="none"/><text fill="#000000" stroke="none" font-family="Arial" font-size="13px" font-style="normal" font-weight="bold" text-decoration="none" x="138.115966796875" y="376">Create Plugin</text></g></g><g transform="translate(-54,2) scale(1,1)"><path fill="#C0C0C0" stroke="none" d="M 111 256 C 111 246.6111584 154.4283744 239 208 239 C 261.5716256 239 305 246.6111584 305 256 C 305 265.3888416 261.5716256 273 208 273 C 154.4283744 273 111 265.3888416 111 256 Z" opacity="0.2"/></g><g transform="translate(-54,2) scale(1,1)"><path fill="#ffffff" stroke="none" d="M 104 249 C 104 239.6111584 147.4283744 232 201 232 C 254.5716256 232 298 239.6111584 298 249 C 298 258.3888416 254.5716256 266 201 266 C 147.4283744 266 104 258.3888416 104 249 Z"/></g><g transform="translate(-54,2) scale(1,1)"><path fill="none" stroke="#000000" d="M 104 249 C 104 239.6111584 147.4283744 232 201 232 C 254.5716256 232 298 239.6111584 298 249 C 298 258.3888416 254.5716256 266 201 266 C 147.4283744 266 104 258.3888416 104 249 Z" stroke-miterlimit="10"/></g><g transform="translate(-54,2) scale(1,1)"><g><path fill="none" stroke="none"/><text fill="#000000" stroke="none" font-family="Arial" font-size="13px" font-style="normal" font-weight="bold" text-decoration="none" x="142.103271484375" y="256">Add Plugin to Profile</text></g></g></g></svg>